<svg version="1.1" xmlns="http://www.w3.org/2000/svg" xmlns:xlink="http://www.w3.org/1999/xlink" x="0px" y="0px" viewBox="0 0 80 80" style="enable-background:new 0 0 80 80;" xml:space="preserve">
<rect x="18" y="37" style="fill:#4E7AB5;" width="60" height="1"></rect>
<rect x="18" y="41" style="fill:#4E7AB5;" width="46" height="1"></rect>
<g>
	<rect x="2.5" y="35.5" style="fill:#8BB7F0;" width="9" height="9"></rect>
	<path style="fill:#4E7AB5;" d="M11,36v8H3v-8H11 M12,35H2v10h10V35L12,35z"></path>
</g>
<rect x="18" y="15" style="fill:#4E7AB5;" width="60" height="1"></rect>
<rect x="18" y="19" style="fill:#4E7AB5;" width="46" height="1"></rect>
<g>
	<rect x="2.5" y="13.5" style="fill:#8BB7F0;" width="9" height="9"></rect>
	<path style="fill:#4E7AB5;" d="M11,14v8H3v-8H11 M12,13H2v10h10V13L12,13z"></path>
</g>
<rect x="18" y="61" style="fill:#4E7AB5;" width="60" height="1"></rect>
<rect x="18" y="65" style="fill:#4E7AB5;" width="46" height="1"></rect>
<g>
	<rect x="2.5" y="59.5" style="fill:#8BB7F0;" width="9" height="9"></rect>
	<path style="fill:#4E7AB5;" d="M11,60v8H3v-8H11 M12,59H2v10h10V59L12,59z"></path>
</g>
</svg>