<?xml version="1.0" encoding="iso-8859-1"?>
<!-- Generator: Adobe Illustrator 17.0.0, SVG Export Plug-In . SVG Version: 6.00 Build 0)  -->
<!DOCTYPE svg PUBLIC "-//W3C//DTD SVG 1.1//EN" "http://www.w3.org/Graphics/SVG/1.1/DTD/svg11.dtd">
<svg version="1.1" id="&#x56FE;&#x5C42;_1" xmlns="http://www.w3.org/2000/svg" xmlns:xlink="http://www.w3.org/1999/xlink" x="0px"
	 y="0px" width="140.162px" height="128.731px" viewBox="0.677 5.802 140.162 128.731"
	 style="enable-background:new 0.677 5.802 140.162 128.731;" xml:space="preserve">
<path style="fill:#FFFFFF;" d="M90.659,90.714c0,0.277,0,0.554-0.019,0.831l-5.599-6.163L72.448,96.82l10.835,11.934
	c-3.201,2.991-7.223,4.758-11.59,4.758c-10.472,0-18.966-10.214-18.966-22.797s8.494-22.797,18.966-22.797
	S90.659,78.131,90.659,90.714z"/>
<path style="fill:#FFFFFF;" d="M94.653,52.648L71.236,5.802L47.819,52.648c6.717-5.335,14.763-8.45,23.417-8.45
	S87.935,47.313,94.653,52.648z"/>
<path style="fill:#FFFFFF;" d="M25.827,88.649c0-1.625,0.07-3.23,0.194-4.817l-25.344,50.7h48.904
	C35.511,126.191,25.827,108.782,25.827,88.649z"/>
<g>
	<path style="fill:#FFFFFF;" d="M91.939,134.532h15.316l-6.488-6.994C98.092,130.29,95.131,132.64,91.939,134.532z"/>
	<path style="fill:#FFFFFF;" d="M115.491,83.835c0.124,1.586,0.201,3.191,0.201,4.816c0,8.943-1.911,17.351-5.284,24.661
		l8.851,9.742l-12.005,11.479h22.434h2.838h8.313L115.491,83.835z"/>
</g>
</svg>
