<?xml version="1.0" encoding="iso-8859-1"?>
<!-- Generator: Adobe Illustrator 17.0.0, SVG Export Plug-In . SVG Version: 6.00 Build 0)  -->
<!DOCTYPE svg PUBLIC "-//W3C//DTD SVG 1.1//EN" "http://www.w3.org/Graphics/SVG/1.1/DTD/svg11.dtd">
<svg version="1.1" id="qadmin_logo" xmlns="http://www.w3.org/2000/svg" xmlns:xlink="http://www.w3.org/1999/xlink" x="0px"
	 y="0px" width="138.258px" height="36.73px" viewBox="3.763 49.802 138.258 36.73"
	 style="enable-background:new 3.763 49.802 138.258 36.73;" xml:space="preserve">
<g>
	<path style="fill:#50BCFF;" d="M29.437,74.03c0,0.079,0,0.158-0.005,0.237l-1.598-1.758l-3.593,3.263l3.092,3.405
		c-0.913,0.853-2.061,1.358-3.307,1.358c-2.988,0-5.411-2.914-5.411-6.505c0-3.59,2.424-6.505,5.411-6.505
		S29.437,70.439,29.437,74.03z"/>
	<path style="fill:#50BCFF;" d="M30.576,63.168l-6.681-13.366l-6.681,13.366c1.917-1.522,4.212-2.411,6.681-2.411
		S28.66,61.646,30.576,63.168z"/>
	<path style="fill:#FF7186;" d="M10.939,73.44c0-0.464,0.02-0.922,0.055-1.374L3.763,86.532h13.953
		C13.702,84.152,10.939,79.185,10.939,73.44z"/>
	<g>
		<path style="fill:#FFA436;" d="M29.802,86.532h4.37l-1.851-1.996C31.558,85.322,30.713,85.992,29.802,86.532z"/>
		<path style="fill:#FFA436;" d="M36.522,72.067c0.035,0.453,0.057,0.911,0.057,1.374c0,2.552-0.545,4.951-1.508,7.036l2.526,2.78
			l-3.425,3.275h6.401h0.81h2.372L36.522,72.067z"/>
	</g>
	<g>
		<path style="fill:#253137;" d="M66.327,83.354c-0.61,0.278-1.663,0.499-2.91,0.499c-3.603,0-6.097-1.885-7.261-4.545
			c-3.908-0.694-6.485-4.102-6.485-9.34c0-5.848,3.27-9.313,7.982-9.313c4.74,0,8.009,3.465,8.009,9.313
			c0,5.044-2.411,8.425-6.097,9.257c0.831,1.442,2.466,2.023,4.212,2.023c0.804,0,1.442-0.139,1.968-0.305L66.327,83.354z
			 M57.652,76.647c2.855,0,4.684-2.605,4.684-6.68c0-4.047-1.829-6.513-4.684-6.513s-4.684,2.466-4.684,6.513
			C52.968,74.042,54.797,76.647,57.652,76.647z"/>
		<path style="fill:#253137;" d="M77.414,74.208h-6.07l-1.413,4.906h-3.298l5.931-18.126h3.769l5.903,18.126h-3.409L77.414,74.208z
			 M76.694,71.686l-0.637-2.218c-0.555-1.913-1.109-3.991-1.636-5.987H74.31c-0.499,2.023-1.026,4.074-1.608,5.987l-0.637,2.218
			H76.694z"/>
		<path style="fill:#253137;" d="M89.082,65.173c1.552,0,2.523,0.582,3.576,1.496l-0.111-2.19v-4.933h3.187v19.567h-2.633
			l-0.222-1.469h-0.111c-0.998,0.998-2.384,1.801-3.853,1.801c-3.409,0-5.598-2.633-5.598-7.123
			C83.318,67.889,86.116,65.173,89.082,65.173z M89.692,76.813c1.053,0,1.94-0.471,2.855-1.524v-6.347
			c-0.942-0.832-1.857-1.137-2.771-1.137c-1.747,0-3.16,1.636-3.16,4.49C86.616,75.234,87.724,76.813,89.692,76.813z"/>
		<path style="fill:#253137;" d="M99.781,65.505h2.633l0.222,1.857h0.111c1.136-1.22,2.466-2.19,4.157-2.19
			c1.996,0,3.132,0.914,3.77,2.439c1.303-1.386,2.661-2.439,4.379-2.439c2.882,0,4.212,1.968,4.212,5.404v8.537h-3.215v-8.121
			c0-2.245-0.665-3.076-2.079-3.076c-0.86,0-1.802,0.555-2.855,1.691v9.506h-3.187v-8.121c0-2.245-0.665-3.076-2.106-3.076
			c-0.832,0-1.802,0.555-2.855,1.691v9.506h-3.187C99.781,79.113,99.781,65.505,99.781,65.505z"/>
		<path style="fill:#253137;" d="M122.786,61.32c0-1.081,0.832-1.829,1.968-1.829s1.967,0.748,1.967,1.829
			c0,1.053-0.832,1.801-1.967,1.801C123.618,63.121,122.786,62.373,122.786,61.32z M123.147,65.505h3.187v13.609h-3.187V65.505z"/>
		<path style="fill:#253137;" d="M130.408,65.505h2.633l0.222,1.829h0.111c1.219-1.192,2.605-2.161,4.462-2.161
			c2.91,0,4.185,1.968,4.185,5.404v8.537h-3.187v-8.121c0-2.245-0.637-3.076-2.134-3.076c-1.191,0-1.967,0.583-3.104,1.691v9.506
			h-3.187L130.408,65.505L130.408,65.505z"/>
	</g>
</g>
</svg>
