<?xml version="1.0" encoding="iso-8859-1"?>
<!-- Generator: Adobe Illustrator 17.0.0, SVG Export Plug-In . SVG Version: 6.00 Build 0)  -->
<!DOCTYPE svg PUBLIC "-//W3C//DTD SVG 1.1//EN" "http://www.w3.org/Graphics/SVG/1.1/DTD/svg11.dtd">
<svg version="1.1" id="qadmin_logo" xmlns="http://www.w3.org/2000/svg" xmlns:xlink="http://www.w3.org/1999/xlink" x="0px"
	 y="0px" width="141.635px" height="37.628px" viewBox="0 51.33 141.635 37.628"
	 style="enable-background:new 0 51.33 141.635 37.628;" xml:space="preserve">
<g>
	<path style="fill:#FFFFFF;" d="M26.301,76.15c0,0.081,0,0.162-0.006,0.243l-1.637-1.801l-3.681,3.343l3.167,3.488
		c-0.936,0.874-2.111,1.391-3.388,1.391c-3.061,0-5.544-2.985-5.544-6.664c0-3.678,2.483-6.664,5.544-6.664
		S26.301,72.472,26.301,76.15z"/>
	<path style="fill:#FFFFFF;" d="M27.469,65.023L20.624,51.33l-6.845,13.693c1.963-1.56,4.315-2.47,6.845-2.47
		S25.505,63.464,27.469,65.023z"/>
	<path style="fill:#FFFFFF;" d="M7.351,75.546c0-0.475,0.021-0.944,0.057-1.408L0,88.958h14.294
		C10.182,86.52,7.351,81.431,7.351,75.546z"/>
	<g>
		<path style="fill:#FFFFFF;" d="M26.675,88.958h4.477l-1.896-2.044C28.474,87.718,27.608,88.405,26.675,88.958z"/>
		<path style="fill:#FFFFFF;" d="M33.56,74.139c0.036,0.464,0.059,0.933,0.059,1.408c0,2.614-0.559,5.072-1.544,7.208l2.587,2.848
			l-3.509,3.355h6.557h0.829h2.43L33.56,74.139z"/>
	</g>
	<g>
		<path style="fill:#FFFFFF;" d="M64.092,85.702c-0.625,0.285-1.704,0.511-2.981,0.511c-3.691,0-6.246-1.931-7.439-4.656
			c-4.003-0.71-6.644-4.202-6.644-9.568c0-5.991,3.35-9.54,8.177-9.54c4.855,0,8.205,3.55,8.205,9.54
			c0,5.167-2.47,8.631-6.246,9.483c0.851,1.477,2.527,2.073,4.315,2.073c0.824,0,1.477-0.142,2.016-0.312L64.092,85.702z
			 M55.206,78.831c2.925,0,4.799-2.669,4.799-6.843c0-4.146-1.874-6.672-4.799-6.672s-4.799,2.527-4.799,6.672
			C50.407,76.162,52.281,78.831,55.206,78.831z"/>
		<path style="fill:#FFFFFF;" d="M75.451,76.333h-6.219l-1.448,5.026h-3.379l6.076-18.569h3.861l6.048,18.569h-3.492L75.451,76.333z
			 M74.713,73.749l-0.653-2.272c-0.568-1.959-1.136-4.088-1.676-6.133H72.27c-0.511,2.073-1.051,4.174-1.647,6.133l-0.653,2.272
			H74.713z"/>
		<path style="fill:#FFFFFF;" d="M87.404,67.077c1.59,0,2.584,0.596,3.663,1.533l-0.113-2.243v-5.053h3.265v20.045h-2.698
			l-0.227-1.505H91.18c-1.022,1.022-2.442,1.845-3.947,1.845c-3.492,0-5.735-2.697-5.735-7.297
			C81.498,69.859,84.366,67.077,87.404,67.077z M88.029,79.002c1.079,0,1.987-0.483,2.925-1.561v-6.502
			c-0.965-0.852-1.903-1.164-2.839-1.164c-1.789,0-3.237,1.676-3.237,4.6C84.877,77.384,86.013,79.002,88.029,79.002z"/>
		<path style="fill:#FFFFFF;" d="M98.364,67.417h2.697l0.228,1.903h0.113c1.163-1.25,2.527-2.243,4.258-2.243
			c2.045,0,3.208,0.937,3.862,2.499c1.334-1.42,2.726-2.499,4.486-2.499c2.953,0,4.315,2.016,4.315,5.536v8.745h-3.293v-8.319
			c0-2.3-0.682-3.152-2.13-3.152c-0.881,0-1.846,0.568-2.925,1.732v9.739h-3.265v-8.319c0-2.3-0.682-3.152-2.158-3.152
			c-0.852,0-1.846,0.568-2.925,1.732v9.739h-3.265V67.417H98.364z"/>
		<path style="fill:#FFFFFF;" d="M121.931,63.13c0-1.108,0.852-1.874,2.016-1.874c1.163,0,2.015,0.766,2.015,1.874
			c0,1.079-0.852,1.845-2.015,1.845C122.783,64.975,121.931,64.209,121.931,63.13z M122.301,67.417h3.265v13.941h-3.265V67.417z"/>
		<path style="fill:#FFFFFF;" d="M129.739,67.417h2.697l0.228,1.874h0.113c1.249-1.221,2.669-2.214,4.571-2.214
			c2.981,0,4.287,2.016,4.287,5.536v8.745h-3.265v-8.319c0-2.3-0.653-3.152-2.186-3.152c-1.22,0-2.015,0.597-3.18,1.732v9.739
			h-3.265L129.739,67.417L129.739,67.417z"/>
	</g>
</g>
</svg>
