<svg version="1.1" xmlns="http://www.w3.org/2000/svg" xmlns:xlink="http://www.w3.org/1999/xlink" x="0px" y="0px" viewBox="0 0 80 80" style="enable-background:new 0 0 80 80;" xml:space="preserve">
<g>
	<path style="fill:#F5CE85;" d="M51.5,61.691V2.508c7.043,0.216,8.963,5.019,10.821,9.667c1.584,3.963,3.219,8.056,8.179,8.312
		v50.704L51.5,61.691z"></path>
	<g>
		<path style="fill:#967A44;" d="M52,3.032c6.292,0.411,8.026,4.749,9.857,9.328c1.594,3.988,3.238,8.104,8.143,8.592v49.43l-18-9
			V3.032 M51,2v60l20,10V20C60.179,20,65.52,2,51,2L51,2z"></path>
	</g>
</g>
<g>
	<ellipse style="fill:#967A44;" cx="56" cy="36" rx="1" ry="2"></ellipse>
</g>
<g>
	<path style="fill:#F5CE85;" d="M9.5,20.487c4.96-0.257,6.595-4.35,8.179-8.312c1.857-4.648,3.777-9.451,10.821-9.667v59.184
		l-19,9.5V20.487z"></path>
	<g>
		<path style="fill:#967A44;" d="M28,3.032v58.35l-18,9v-49.43c4.905-0.488,6.55-4.604,8.143-8.592
			C19.974,7.78,21.708,3.442,28,3.032 M29,2C14.48,2,19.821,20,9,20v52l20-10V2L29,2z"></path>
	</g>
</g>
<g>
	<path style="fill:#B0C1D4;" d="M1.5,75.5V16c0-0.827,0.673-1.5,1.5-1.5h6c0.827,0,1.5,0.673,1.5,1.5v59.5H1.5z"></path>
	<path style="fill:#66798F;" d="M9,15c0.551,0,1,0.449,1,1v59H2V16c0-0.551,0.449-1,1-1H9 M9,14H3c-1.105,0-2,0.895-2,2v60h10V16
		C11,14.895,10.105,14,9,14L9,14z"></path>
</g>
<g>
	<circle style="fill:#B0C1D4;" cx="6" cy="10" r="4.5"></circle>
	<path style="fill:#66798F;" d="M6,6c2.206,0,4,1.794,4,4s-1.794,4-4,4s-4-1.794-4-4S3.794,6,6,6 M6,5c-2.761,0-5,2.239-5,5
		s2.239,5,5,5s5-2.239,5-5S8.761,5,6,5L6,5z"></path>
</g>
<g>
	<path style="fill:#B0C1D4;" d="M69.5,75.5V16c0-0.827,0.673-1.5,1.5-1.5h6c0.827,0,1.5,0.673,1.5,1.5v59.5H69.5z"></path>
	<path style="fill:#66798F;" d="M77,15c0.551,0,1,0.449,1,1v59h-8V16c0-0.551,0.449-1,1-1H77 M77,14h-6c-1.105,0-2,0.895-2,2v60h10
		V16C79,14.895,78.105,14,77,14L77,14z"></path>
</g>
<g>
	<circle style="fill:#B0C1D4;" cx="74" cy="10" r="4.5"></circle>
	<path style="fill:#66798F;" d="M74,6c2.206,0,4,1.794,4,4s-1.794,4-4,4s-4-1.794-4-4S71.794,6,74,6 M74,5c-2.761,0-5,2.239-5,5
		s2.239,5,5,5s5-2.239,5-5S76.761,5,74,5L74,5z"></path>
</g>
<g>
	<ellipse style="fill:#967A44;" cx="24" cy="36" rx="1" ry="2"></ellipse>
</g>
</svg>