<svg version="1.1" xmlns="http://www.w3.org/2000/svg" xmlns:xlink="http://www.w3.org/1999/xlink" x="0px" y="0px" viewBox="0 0 80 80" style="enable-background:new 0 0 80 80;" xml:space="preserve">
<g>
	<polygon style="fill:#FFEEA3;" points="2.5,61.668 2.5,52.357 40,39.528 77.5,52.357 77.5,61.668 40,77.457 	"></polygon>
	<g>
		<path style="fill:#BA9B48;" d="M40,40.057l37,12.658v8.621L40,76.915L3,61.336v-8.621L40,40.057 M40,39L2,52v10l38,16l38-16V52
			L40,39L40,39z"></path>
	</g>
</g>
<g>
	<polygon style="fill:#BAE0BD;" points="2.5,52.668 2.5,43.357 40,30.528 77.5,43.357 77.5,52.668 40,68.457 	"></polygon>
	<g>
		<path style="fill:#5E9C76;" d="M40,31.057l37,12.658v8.621L40,67.915L3,52.336v-8.621L40,31.057 M40,30L2,43v10l38,16l38-16V43
			L40,30L40,30z"></path>
	</g>
</g>
<g>
	<polygon style="fill:#C2E8FF;" points="2.5,43.668 2.5,34.357 40,21.528 77.5,34.357 77.5,43.668 40,59.457 	"></polygon>
	<g>
		<path style="fill:#7496C4;" d="M40,22.057l37,12.658v8.621L40,58.915L3,43.336v-8.621L40,22.057 M40,21L2,34v10l38,16l38-16V34
			L40,21L40,21z"></path>
	</g>
</g>
<g>
	<polygon style="fill:#8BB7F0;" points="2.5,34.668 2.5,25.357 40,12.528 77.5,25.357 77.5,34.668 40,50.457 	"></polygon>
	<g>
		<path style="fill:#4E7AB5;" d="M40,13.057l37,12.658v8.621L40,49.915L3,34.336v-8.621L40,13.057 M40,12L2,25v10l38,16l38-16V25
			L40,12L40,12z"></path>
	</g>
</g>
<g>
	<polygon style="fill:#F78F8F;" points="2.5,25.668 2.5,17.357 40,4.528 77.5,17.357 77.5,25.668 40,41.457 	"></polygon>
	<g>
		<path style="fill:#C74343;" d="M40,5.057l37,12.658v7.621L40,40.915L3,25.336v-7.621L40,5.057 M40,4L2,17v9l38,16l38-16v-9L40,4
			L40,4z"></path>
	</g>
</g>
<g>
	<path style="fill:#FFB5B5;" d="M40,32.915l-37-15.2L40,5.057l37,12.658L40,32.915z"></path>
</g>
<g>
	<ellipse style="fill:#F78F8F;" cx="48" cy="13.321" rx="2" ry="1"></ellipse>
</g>
<g>
	<ellipse style="fill:#F78F8F;" cx="48" cy="21.321" rx="2" ry="1"></ellipse>
</g>
<g>
	<ellipse style="fill:#F78F8F;" cx="60" cy="19.321" rx="2" ry="1"></ellipse>
</g>
<g>
	<ellipse style="fill:#F78F8F;" cx="32" cy="17.321" rx="2" ry="1"></ellipse>
</g>
<g>
	<ellipse style="fill:#F78F8F;" cx="24" cy="19.321" rx="2" ry="1"></ellipse>
</g>
</svg>