<?xml version="1.0" encoding="utf-8"?>
<!-- Generator: Adobe Illustrator 17.0.0, SVG Export Plug-In . SVG Version: 6.00 Build 0)  -->
<!DOCTYPE svg PUBLIC "-//W3C//DTD SVG 1.1//EN" "http://www.w3.org/Graphics/SVG/1.1/DTD/svg11.dtd">
<svg version="1.1" id="图层_1" xmlns="http://www.w3.org/2000/svg" xmlns:xlink="http://www.w3.org/1999/xlink" x="0px" y="0px"
	 width="141.73px" height="141.73px" viewBox="0 0 141.73 141.73" enable-background="new 0 0 141.73 141.73" xml:space="preserve">
<g>
	<rect x="56.869" y="99.388" fill="#B0C1D4" width="27.992" height="24.271"/>
	<path fill="#66798F" d="M83.975,100.274v22.322H57.932v-22.322H83.975 M85.924,98.502h-29.94v26.22h29.94V98.502L85.924,98.502z"/>
</g>
<g>
	<rect x="1.037" y="9.744" fill="#F7FAFC" width="139.958" height="99.034"/>
	<g>
		<path fill="#66798F" d="M140.109,10.807v97.085H1.923V10.807H140.109 M142.058,8.858H0.151v100.805h141.907V8.858L142.058,8.858z"
			/>
	</g>
</g>
<rect x="1.772" y="94.782" fill="#66798F" width="138.364" height="13.11"/>
<g>
	<path fill="#B0C1D4" d="M30.826,131.1c0.531-5.315,4.961-9.39,10.275-9.39h59.704c5.315,0,9.744,4.075,10.275,9.39H30.826z"/>
	<path fill="#66798F" d="M65.196,122.774h35.61 M100.805,122.774c4.429,0,8.327,3.189,9.212,7.441H31.889
		c0.886-4.252,4.606-7.441,9.212-7.441h24.094 M100.805,120.825H41.102c-6.201,0-11.161,4.961-11.161,11.161l0,0h82.203l0,0
		C111.967,125.963,107.006,120.825,100.805,120.825L100.805,120.825z"/>
</g>
<rect x="123.305" y="100.274" fill="#FFEEA3" width="11.161" height="3.72"/>
<g>
	<path fill="#50BCFF" d="M38.373,54.541c0,0.059,0,0.119-0.004,0.178l-1.202-1.323l-2.703,2.455l2.326,2.561
		c-0.687,0.642-1.55,1.021-2.488,1.021c-2.248,0-4.071-2.192-4.071-4.893c0-2.701,1.823-4.893,4.071-4.893
		S38.373,51.84,38.373,54.541z"/>
	<path fill="#50BCFF" d="M39.23,46.37l-5.026-10.055L29.178,46.37c1.442-1.145,3.169-1.814,5.026-1.814S37.788,45.225,39.23,46.37z"
		/>
	<path fill="#FF7186" d="M24.458,54.097c0-0.349,0.015-0.693,0.042-1.034l-5.44,10.882h10.496
		C26.536,62.155,24.458,58.419,24.458,54.097z"/>
	<g>
		<path fill="#FFA436" d="M38.648,63.945h3.287l-1.392-1.501C39.968,63.035,39.332,63.539,38.648,63.945z"/>
		<path fill="#FFA436" d="M43.703,53.064c0.027,0.34,0.043,0.685,0.043,1.034c0,1.92-0.41,3.724-1.134,5.293l1.9,2.091l-2.577,2.464
			h4.815h0.609h1.784L43.703,53.064z"/>
	</g>
	<g>
		<path fill="#253137" d="M66.123,61.555c-0.459,0.209-1.251,0.376-2.189,0.376c-2.71,0-4.586-1.418-5.462-3.419
			c-2.939-0.522-4.878-3.086-4.878-7.026c0-4.399,2.46-7.006,6.005-7.006c3.565,0,6.025,2.606,6.025,7.006
			c0,3.794-1.814,6.338-4.586,6.963c0.625,1.084,1.855,1.522,3.169,1.522c0.605,0,1.084-0.104,1.48-0.229L66.123,61.555z
			 M59.597,56.51c2.148,0,3.524-1.96,3.524-5.025c0-3.044-1.376-4.9-3.524-4.9c-2.148,0-3.524,1.855-3.524,4.9
			C56.074,54.55,57.45,56.51,59.597,56.51z"/>
		<path fill="#253137" d="M74.463,54.675h-4.566l-1.063,3.69h-2.481l4.462-13.635h2.835l4.441,13.635h-2.564L74.463,54.675z
			 M73.921,52.778l-0.479-1.668c-0.417-1.439-0.834-3.002-1.231-4.504h-0.083c-0.376,1.522-0.772,3.065-1.209,4.504l-0.479,1.668
			H73.921z"/>
		<path fill="#253137" d="M83.24,47.878c1.168,0,1.898,0.438,2.69,1.125l-0.083-1.647v-3.711h2.398v14.719h-1.981l-0.167-1.105
			h-0.083c-0.75,0.75-1.793,1.355-2.898,1.355c-2.564,0-4.211-1.98-4.211-5.358C78.904,49.921,81.009,47.878,83.24,47.878z
			 M83.699,56.635c0.792,0,1.459-0.354,2.148-1.147v-4.775c-0.709-0.626-1.397-0.855-2.085-0.855c-1.314,0-2.377,1.231-2.377,3.377
			C81.385,55.446,82.219,56.635,83.699,56.635z"/>
		<path fill="#253137" d="M91.289,48.128h1.98l0.167,1.397h0.083c0.854-0.918,1.855-1.647,3.127-1.647
			c1.502,0,2.356,0.688,2.836,1.835c0.98-1.043,2.002-1.835,3.294-1.835c2.168,0,3.169,1.48,3.169,4.065v6.422h-2.418v-6.109
			c0-1.689-0.501-2.314-1.564-2.314c-0.647,0-1.355,0.417-2.148,1.272v7.151h-2.398v-6.109c0-1.689-0.501-2.314-1.584-2.314
			c-0.626,0-1.355,0.417-2.148,1.272v7.151h-2.398V48.128z"/>
		<path fill="#253137" d="M108.594,44.98c0-0.813,0.626-1.376,1.48-1.376c0.854,0,1.48,0.563,1.48,1.376
			c0,0.792-0.626,1.355-1.48,1.355C109.219,46.335,108.594,45.772,108.594,44.98z M108.865,48.128h2.398v10.237h-2.398V48.128z"/>
		<path fill="#253137" d="M114.327,48.128h1.98l0.167,1.376h0.083c0.917-0.897,1.96-1.626,3.356-1.626
			c2.189,0,3.148,1.48,3.148,4.065v6.422h-2.398v-6.109c0-1.689-0.479-2.314-1.605-2.314c-0.896,0-1.48,0.438-2.335,1.272v7.151
			h-2.398V48.128z"/>
	</g>
</g>
</svg>
